<svg width="36" height="24" viewBox="0 0 36 24" fill="none" xmlns="http://www.w3.org/2000/svg">
<rect width="36" height="24" rx="3" fill="#E7E7E7"/>
<path fill-rule="evenodd" clip-rule="evenodd" d="M19.2762 14.426L18.7488 15.4645L18.2213 14.426H17.6543V16.7801H18.2314V15.6031C18.2314 15.6031 18.5147 16.0995 18.5572 16.1736C18.5997 16.2478 18.6721 16.2862 18.7487 16.2862C18.8254 16.2862 18.898 16.2478 18.9404 16.1736C18.9829 16.0995 19.2662 15.6031 19.2662 15.6031V16.7801H19.8433V14.426H19.2762Z" fill="#595A59"/>
<path fill-rule="evenodd" clip-rule="evenodd" d="M20.3276 16.7801V14.426H21.924V14.9419H20.9047V15.335H21.7755V15.8513H20.9047V16.2649H21.924V16.7801H20.3276Z" fill="#595A59"/>
<path fill-rule="evenodd" clip-rule="evenodd" d="M23.8298 16.5554C23.6285 16.7635 23.4042 16.8194 23.1472 16.8194C22.8735 16.8194 22.6655 16.7276 22.4943 16.5554C22.2468 16.3072 22.2566 15.9497 22.2566 15.5964C22.2566 15.2426 22.2468 14.8881 22.4943 14.6397C22.6655 14.468 22.864 14.3757 23.1472 14.3757C23.7503 14.3757 24.0078 14.7687 24.0636 15.1559H23.4837C23.4371 14.9771 23.3447 14.8909 23.1472 14.8909C23.0416 14.8909 22.9623 14.9377 22.9196 14.9939C22.8667 15.0632 22.8339 15.1664 22.8339 15.5964C22.8339 16.0259 22.8667 16.1355 22.9196 16.2049C22.9623 16.2618 23.0416 16.3041 23.1472 16.3041C23.2692 16.3041 23.3514 16.2679 23.4042 16.2114C23.4702 16.1453 23.4936 16.0277 23.4936 15.9386V15.9054H23.1472V15.422H24.0671V15.7495C24.0671 16.1305 24.0078 16.3738 23.8298 16.5554Z" fill="#595A59"/>
<path fill-rule="evenodd" clip-rule="evenodd" d="M25.0485 15.9585L25.2643 15.2768L25.4802 15.9585H25.0485ZM25.4868 14.426H25.0417L24.1877 16.7801H24.7812L24.8965 16.4295H25.632L25.7474 16.7801H26.3408L25.4868 14.426Z" fill="#595A59"/>
<path fill-rule="evenodd" clip-rule="evenodd" d="M10.158 15.6922H9.51813V16.5553H10.158C10.4482 16.5553 10.6297 16.3866 10.6297 16.122C10.6297 15.8575 10.4482 15.6922 10.158 15.6922ZM10.1316 14.6504H9.51813V15.4673H10.1316C10.3922 15.4673 10.5934 15.3383 10.5934 15.0572C10.5934 14.7761 10.3922 14.6504 10.1316 14.6504ZM10.181 16.7802H9.26733V14.4255H10.1513C10.5603 14.4255 10.844 14.6603 10.844 15.0539C10.844 15.3019 10.6955 15.497 10.4976 15.5698C10.722 15.6524 10.8803 15.8476 10.8803 16.1286C10.8803 16.5553 10.5966 16.7802 10.181 16.7802Z" fill="#595A59"/>
<path fill-rule="evenodd" clip-rule="evenodd" d="M12.0113 14.786L11.5693 16.0294H12.4467L12.0113 14.786ZM12.7073 16.7802L12.5193 16.2477H11.4935L11.3055 16.7802H11.0383L11.9025 14.4255H12.1136L12.9745 16.7802H12.7073Z" fill="#595A59"/>
<path fill-rule="evenodd" clip-rule="evenodd" d="M14.7194 16.7801L13.4726 14.8918V16.7801H13.2219V14.4255H13.4594L14.7062 16.3072V14.4255H14.9569V16.7801H14.7194Z" fill="#595A59"/>
<path fill-rule="evenodd" clip-rule="evenodd" d="M16.9653 16.7801L16.2496 15.5268L15.7548 16.122V16.7801H15.5042V14.4255H15.7548V15.7781L16.8499 14.4255H17.1566L16.4178 15.335L17.2622 16.7801H16.9653Z" fill="#595A59"/>
<path fill-rule="evenodd" clip-rule="evenodd" d="M18.6682 6.81958L17.804 8.76535L19.1726 11.8467L21.4051 6.81958H18.6682Z" fill="#949594"/>
<path fill-rule="evenodd" clip-rule="evenodd" d="M21.4051 6.81958H18.6682L21.3222 12.7956H24.0595L21.4051 6.81958Z" fill="#595A59"/>
<path fill-rule="evenodd" clip-rule="evenodd" d="M16.9407 6.81958H14.2039L16.4363 11.8467L17.805 8.76535L16.9407 6.81958Z" fill="#EC952D"/>
<path fill-rule="evenodd" clip-rule="evenodd" d="M14.2037 6.81958L11.5493 12.7956H14.2867L16.9406 6.81958H14.2037Z" fill="#F9C623"/>
<path fill-rule="evenodd" clip-rule="evenodd" d="M17.8045 8.76514L16.4363 11.8465C16.675 12.3645 17.1982 12.7223 17.8045 12.7223C18.4109 12.7223 18.9341 12.3645 19.1727 11.8465L17.8045 8.76514Z" fill="#E3672A"/>
</svg>
