<svg width="36" height="24" viewBox="0 0 36 24" fill="none" xmlns="http://www.w3.org/2000/svg">
<rect width="36" height="24" rx="3" fill="#FEF200"/>
<path fill-rule="evenodd" clip-rule="evenodd" d="M16.6569 10.3871H17.3265C17.5585 10.3871 17.7305 10.4349 17.7305 10.6922C17.7305 10.9562 17.4694 11.0333 17.2623 11.0333H16.5258L16.6569 10.3871ZM14.7188 13.6347H17.1487C18.0757 13.6347 18.8937 13.2269 18.8937 12.1971C18.8937 11.8029 18.6452 11.4251 18.2526 11.3411V11.3297H18.2585C18.7693 11.1927 19.036 10.8387 19.036 10.3007C19.036 9.68314 18.6919 9.36035 17.7721 9.36035H15.597L14.7188 13.6347ZM16.3654 11.8297H17.0828C17.3563 11.8297 17.5889 11.8775 17.5889 12.1959C17.5889 12.5424 17.2687 12.6256 17.036 12.6256H16.1989L16.3654 11.8297Z" fill="#0069AC"/>
<path fill-rule="evenodd" clip-rule="evenodd" d="M20.0066 13.6345H21.3112L21.9646 10.455H23.1395L23.366 9.36035H19.7092L19.4841 10.455H20.6591L20.0066 13.6345Z" fill="#0069AC"/>
<path fill-rule="evenodd" clip-rule="evenodd" d="M22.949 13.6345H24.1892L24.6815 11.2401H24.693L25.4703 13.6345H26.7523L27.6433 9.36035H26.4019L25.9273 11.6949H25.9162L25.1209 9.36035H23.8264L22.949 13.6345Z" fill="#0069AC"/>
<mask id="mask0_5_27421" style="mask-type:luminance" maskUnits="userSpaceOnUse" x="14" y="14" width="14" height="3">
<path fill-rule="evenodd" clip-rule="evenodd" d="M20.9549 16.5827H27.6745V14.4102H14.2354V16.5827H20.9549Z" fill="white"/>
</mask>
<g mask="url(#mask0_5_27421)">
<path fill-rule="evenodd" clip-rule="evenodd" d="M14.2354 16.5827C14.2745 16.4371 14.2584 16.4379 14.3548 16.0456C14.4241 15.6586 14.8464 15.0663 15.5909 15.0055C15.8446 14.9748 25.5916 14.5573 27.6746 14.4102L27.612 14.7734C25.6498 15.0293 16.7712 16.2434 14.2354 16.5827Z" fill="#E31C24"/>
</g>
<path fill-rule="evenodd" clip-rule="evenodd" d="M7.97217 10.1371L10.6413 8.58276L13.3109 10.1371V13.2459L12.6434 13.6351V10.5264L10.6413 9.36005L8.63998 10.5264V13.6351L7.97217 13.2459V10.1371Z" fill="#0069AC"/>
<path fill-rule="evenodd" clip-rule="evenodd" d="M9.97412 13.6351V14.4114L10.6414 14.0227L11.3089 14.4114V13.6351L10.6414 13.2458L9.97412 13.6351Z" fill="#A68561"/>
<path fill-rule="evenodd" clip-rule="evenodd" d="M12.6431 13.6352V12.8569L10.6411 11.6912L8.64038 12.8569V13.6352L10.6411 12.4682L12.6431 13.6352Z" fill="#A68561"/>
<path fill-rule="evenodd" clip-rule="evenodd" d="M10.6409 10.137L11.9757 10.9146V14.0228L11.3087 14.4109V11.3025L10.6409 10.9146L9.97411 11.3025V14.4109L9.30737 14.0228V10.9146L10.6409 10.137Z" fill="#0069AC"/>
</svg>
