<svg width="20" height="20" viewBox="0 0 20 20" fill="none" xmlns="http://www.w3.org/2000/svg">
<path d="M17.1166 15.8667C16.9916 15.9917 16.8333 16.05 16.6749 16.05C16.5166 16.05 16.3583 15.9917 16.2333 15.8667L12.1083 11.7417L12.5499 11.3L12.9916 10.8583L17.1166 14.9833C17.3583 15.225 17.3583 15.625 17.1166 15.8667Z" fill="white"/>
<path d="M5.39172 7.73333L10.225 12.5667C10.55 12.8917 10.55 13.4167 10.225 13.7417L9.47505 14.5C8.80005 15.1667 7.73338 15.1667 7.06672 14.5L3.45005 10.8833C2.79172 10.225 2.79172 9.14999 3.45005 8.48333L4.20838 7.72499C4.53338 7.40833 5.06672 7.40833 5.39172 7.73333Z" fill="white"/>
<path d="M15.4917 8.49168L12.3167 11.6583C11.9834 11.9917 11.45 11.9917 11.1167 11.6583L6.30005 6.84168C5.96672 6.50835 5.96672 5.97501 6.30005 5.64168L9.47505 2.46668C10.1334 1.80835 11.2084 1.80835 11.875 2.46668L15.4917 6.08335C16.15 6.75001 16.15 7.81668 15.4917 8.49168Z" fill="white"/>
<path d="M6.66663 18.125H1.66663C1.32496 18.125 1.04163 17.8417 1.04163 17.5C1.04163 17.1583 1.32496 16.875 1.66663 16.875H6.66663C7.00829 16.875 7.29163 17.1583 7.29163 17.5C7.29163 17.8417 7.00829 18.125 6.66663 18.125Z" fill="white"/>
</svg>
